<svg width="109" height="36" viewBox="0 0 109 36" fill="none" xmlns="http://www.w3.org/2000/svg">
<path d="M99.9493 0.000117H8.65289C8.32011 0.000117 7.99131 0.000117 7.65941 0.00191699C7.38157 0.00371699 7.10595 0.00894597 6.82544 0.013347C6.21606 0.0204586 5.6081 0.0736254 5.00687 0.172385C4.40648 0.273295 3.82489 0.46354 3.28179 0.736684C2.73934 1.01214 2.2437 1.37006 1.81283 1.79747C1.3797 2.22368 1.01866 2.71632 0.743575 3.25645C0.467735 3.7955 0.276467 4.37315 0.176376 4.96943C0.0753339 5.56497 0.0209622 6.16737 0.0137489 6.77123C0.00532713 7.04717 0.00443776 7.32402 0 7.6V28.4028C0.00443776 28.6822 0.00532713 28.9529 0.0137489 29.2325C0.0209644 29.8363 0.0753362 30.4387 0.176376 31.0342C0.27619 31.6308 0.46747 32.2088 0.743575 32.748C1.01853 33.2864 1.37963 33.7771 1.81283 34.2009C2.24206 34.6302 2.73803 34.9884 3.28179 35.2617C3.82489 35.5356 4.40641 35.727 5.00687 35.8295C5.60821 35.9274 6.2161 35.9806 6.82544 35.9886C7.10595 35.9947 7.38157 35.9982 7.65941 35.9982C7.99131 36 8.32013 36 8.65289 36H99.9493C100.275 36 100.607 36 100.933 35.9982C101.21 35.9982 101.493 35.9947 101.77 35.9886C102.378 35.981 102.985 35.9278 103.585 35.8295C104.187 35.7263 104.771 35.5349 105.316 35.2617C105.86 34.9882 106.355 34.6301 106.784 34.2009C107.216 33.7754 107.578 33.2851 107.856 32.748C108.13 32.2084 108.32 31.6305 108.418 31.0342C108.519 30.4386 108.576 29.8364 108.587 29.2325C108.59 28.9529 108.59 28.6822 108.59 28.4028C108.597 28.0758 108.597 27.7506 108.597 27.4183V8.58261C108.597 8.25302 108.597 7.92607 108.59 7.6C108.59 7.32402 108.59 7.04717 108.587 6.77119C108.576 6.16728 108.519 5.56501 108.418 4.9694C108.32 4.37346 108.13 3.79586 107.856 3.25641C107.296 2.17379 106.408 1.29254 105.316 0.736603C104.771 0.464126 104.187 0.273932 103.585 0.172304C102.985 0.0731093 102.378 0.0199239 101.77 0.013221C101.493 0.00882897 101.21 0.00355499 100.933 0.00179999C100.607 0 100.275 0 99.9493 0V0.000117Z" fill="#A6A6A6"/>
<path d="M7.66392 35.2125C7.38742 35.2125 7.1176 35.209 6.84326 35.2029C6.27496 35.1955 5.70798 35.1465 5.14698 35.0561C4.62388 34.9667 4.11714 34.8005 3.64346 34.563C3.17413 34.3274 2.74607 34.0184 2.37566 33.648C1.99989 33.282 1.68705 32.8574 1.44953 32.3912C1.20939 31.9219 1.0432 31.4189 0.956746 30.8997C0.863385 30.3418 0.812872 29.7777 0.805644 29.2122C0.799891 29.0224 0.792358 28.3904 0.792358 28.3904V7.59998C0.792358 7.59998 0.800381 6.97772 0.80569 6.7949C0.81261 6.23031 0.862829 5.66707 0.955911 5.11004C1.04252 4.58941 1.20884 4.08496 1.44911 3.61416C1.68576 3.14824 1.99687 2.72337 2.37037 2.356C2.74345 1.98515 3.17289 1.67464 3.64302 1.43578C4.1156 1.19898 4.62139 1.03396 5.14344 0.94624C5.70628 0.85495 6.27522 0.805594 6.8455 0.798587L7.66437 0.787598H100.929L101.757 0.799028C102.322 0.805687 102.886 0.854602 103.444 0.945358C103.971 1.03417 104.482 1.20035 104.96 1.43842C105.902 1.91978 106.668 2.68134 107.152 3.61635C107.388 4.08391 107.552 4.58424 107.638 5.10037C107.732 5.66197 107.785 6.22964 107.795 6.79886C107.798 7.05374 107.798 7.32752 107.798 7.59998C107.805 7.93748 107.805 8.25872 107.805 8.58259V27.4183C107.805 27.7453 107.805 28.0644 107.798 28.386C107.798 28.6787 107.798 28.9468 107.794 29.2227C107.784 29.7818 107.732 30.3393 107.639 30.8909C107.555 31.4138 107.389 31.9208 107.149 32.3939C106.91 32.8551 106.599 33.2759 106.228 33.641C105.857 34.0134 105.428 34.3241 104.958 34.5613C104.481 34.8006 103.971 34.9675 103.444 35.0561C102.883 35.1469 102.316 35.196 101.748 35.2029C101.482 35.209 101.203 35.2125 100.933 35.2125L99.9494 35.2143L7.66392 35.2125Z" fill="black"/>
<path d="M22.4784 18.2707C22.4881 17.5195 22.6893 16.783 23.0633 16.1296C23.4372 15.4762 23.9717 14.9273 24.617 14.5339C24.2071 13.9532 23.6662 13.4754 23.0375 13.1383C22.4087 12.8012 21.7094 12.6141 20.995 12.5919C19.471 12.4333 17.9936 13.4963 17.2171 13.4963C16.4255 13.4963 15.2298 12.6077 13.9423 12.634C13.1095 12.6606 12.2978 12.9008 11.5865 13.3311C10.8751 13.7613 10.2882 14.367 9.88302 15.089C8.12788 18.1026 9.43705 22.5315 11.1183 24.9675C11.9595 26.1603 12.9426 27.4927 14.229 27.4454C15.4878 27.3937 15.9579 26.6494 17.4773 26.6494C18.9827 26.6494 19.4238 27.4454 20.7362 27.4154C22.087 27.3937 22.938 26.2173 23.7497 25.0132C24.354 24.1633 24.8191 23.2239 25.1277 22.2299C24.3429 21.9008 23.6732 21.3498 23.2021 20.6458C22.731 19.9417 22.4793 19.1157 22.4784 18.2707Z" fill="white"/>
<path d="M19.9993 10.9899C20.7358 10.1132 21.0986 8.98619 21.0107 7.84839C19.8856 7.96559 18.8462 8.49889 18.0998 9.34203C17.7348 9.75393 17.4553 10.2331 17.2772 10.7522C17.0991 11.2713 17.026 11.8201 17.0619 12.3673C17.6246 12.373 18.1814 12.252 18.6902 12.0135C19.199 11.7749 19.6466 11.4249 19.9993 10.9899Z" fill="white"/>
<path d="M38.3904 24.4258H34.0947L33.0631 27.4465H31.2437L35.3124 16.2704H37.2028L41.2715 27.4465H39.4211L38.3904 24.4258ZM34.5396 23.0318H37.9446L36.2661 18.1293H36.2191L34.5396 23.0318Z" fill="white"/>
<path d="M50.0588 23.3729C50.0588 25.905 48.6923 27.5319 46.63 27.5319C46.1075 27.559 45.588 27.4396 45.1308 27.1875C44.6736 26.9354 44.2972 26.5607 44.0448 26.1063H44.0057V30.1422H42.3192V19.2983H43.9517V20.6536H43.9827C44.2468 20.2014 44.6295 19.8286 45.0902 19.5749C45.5509 19.3213 46.0723 19.1962 46.5989 19.2131C48.6842 19.2131 50.0588 20.8478 50.0588 23.3729ZM48.3253 23.3729C48.3253 21.7232 47.4657 20.6386 46.154 20.6386C44.8654 20.6386 43.9987 21.7461 43.9987 23.3729C43.9987 25.0147 44.8654 26.1142 46.154 26.1142C47.4657 26.1142 48.3253 25.0376 48.3253 23.3729Z" fill="white"/>
<path d="M59.1021 23.3729C59.1021 25.905 57.7355 27.5319 55.6732 27.5319C55.1507 27.559 54.6312 27.4396 54.174 27.1875C53.7168 26.9354 53.3404 26.5607 53.088 26.1063H53.049V30.1422H51.3624V19.2983H52.9949V20.6536H53.0259C53.29 20.2014 53.6727 19.8286 54.1334 19.5749C54.5941 19.3213 55.1155 19.1962 55.6421 19.2131C57.7275 19.2131 59.1021 20.8478 59.1021 23.3729ZM57.3686 23.3729C57.3686 21.7232 56.5089 20.6386 55.1972 20.6386C53.9086 20.6386 53.0419 21.746 53.0419 23.3729C53.0419 25.0147 53.9086 26.1142 55.1972 26.1142C56.5089 26.1142 57.3686 25.0375 57.3686 23.3729H57.3686Z" fill="white"/>
<path d="M65.079 24.3325C65.2039 25.4408 66.2896 26.1685 67.7732 26.1685C69.1947 26.1685 70.2174 25.4408 70.2174 24.4415C70.2174 23.574 69.6006 23.0546 68.1401 22.6986L66.6795 22.3497C64.6102 21.854 63.6495 20.8942 63.6495 19.3368C63.6495 17.4085 65.344 16.084 67.7501 16.084C70.1315 16.084 71.7639 17.4085 71.8189 19.3368H70.1164C70.0145 18.2215 69.0848 17.5482 67.7262 17.5482C66.3676 17.5482 65.4379 18.2294 65.4379 19.2208C65.4379 20.0109 66.0317 20.4759 67.4842 20.8318L68.7259 21.1341C71.0381 21.6764 71.9988 22.5975 71.9988 24.2323C71.9988 26.3232 70.3193 27.6327 67.6482 27.6327C65.149 27.6327 63.4615 26.3539 63.3525 24.3325L65.079 24.3325Z" fill="white"/>
<path d="M75.6387 17.3699V19.2982H77.2011V20.6227H75.6387V25.1148C75.6387 25.8126 75.9515 26.1378 76.6384 26.1378C76.8239 26.1346 77.009 26.1217 77.1932 26.0991V27.4157C76.8844 27.4729 76.5705 27.4988 76.2564 27.4931C74.5929 27.4931 73.9442 26.8734 73.9442 25.2932V20.6227H72.7495V19.2982H73.9441V17.3699H75.6387Z" fill="white"/>
<path d="M78.106 23.3728C78.106 20.809 79.6285 19.198 82.0028 19.198C84.385 19.198 85.9005 20.809 85.9005 23.3728C85.9005 25.9436 84.393 27.5476 82.0028 27.5476C79.6134 27.5476 78.106 25.9436 78.106 23.3728ZM84.1821 23.3728C84.1821 21.6141 83.3694 20.5761 82.0028 20.5761C80.6362 20.5761 79.8244 21.622 79.8244 23.3728C79.8244 25.1385 80.6362 26.1686 82.0028 26.1686C83.3694 26.1686 84.182 25.1385 84.182 23.3728H84.1821Z" fill="white"/>
<path d="M87.291 19.2982H88.8996V20.6851H88.9386C89.0474 20.252 89.3033 19.8692 89.6632 19.6011C90.0231 19.333 90.4651 19.1959 90.9149 19.213C91.1093 19.2123 91.3031 19.2332 91.4928 19.2754V20.8398C91.2474 20.7655 90.9914 20.7313 90.735 20.7387C90.49 20.7289 90.2457 20.7717 90.019 20.8643C89.7922 20.9569 89.5884 21.0971 89.4214 21.2752C89.2545 21.4533 89.1283 21.6651 89.0517 21.8961C88.9751 22.1271 88.9498 22.3718 88.9775 22.6134V27.4465H87.291L87.291 19.2982Z" fill="white"/>
<path d="M99.2686 25.0533C99.0417 26.5324 97.5892 27.5476 95.7307 27.5476C93.3405 27.5476 91.8569 25.9594 91.8569 23.4115C91.8569 20.8556 93.3485 19.198 95.6598 19.198C97.933 19.198 99.3626 20.7466 99.3626 23.2172V23.7903H93.5594V23.8913C93.5326 24.1912 93.5705 24.4933 93.6705 24.7776C93.7705 25.0618 93.9303 25.3217 94.1394 25.54C94.3484 25.7583 94.6019 25.93 94.883 26.0437C95.1641 26.1574 95.4664 26.2104 95.7697 26.1993C96.1683 26.2364 96.5682 26.1448 96.9101 25.9383C97.252 25.7318 97.5175 25.4214 97.6672 25.0532L99.2686 25.0533ZM93.5674 22.6213H97.6752C97.6903 22.3517 97.6491 22.0819 97.5541 21.8288C97.4591 21.5757 97.3124 21.3448 97.1231 21.1506C96.9339 20.9564 96.7062 20.8031 96.4544 20.7003C96.2026 20.5975 95.9321 20.5475 95.6598 20.5533C95.3852 20.5516 95.1129 20.604 94.8588 20.7072C94.6046 20.8105 94.3736 20.9627 94.1791 21.1549C93.9846 21.3472 93.8304 21.5758 93.7254 21.8275C93.6204 22.0792 93.5667 22.349 93.5674 22.6213V22.6213Z" fill="white"/>
</svg>
