<svg width="96" height="59" viewBox="0 0 96 59" fill="none" xmlns="http://www.w3.org/2000/svg">
<path fill-rule="evenodd" clip-rule="evenodd" d="M19.5 38H4.5C3.66003 38 3 38.66 3 39.5V54.5C3 55.34 3.66003 56 4.5 56H11.4H15H19.5C20.34 56 21 55.34 21 54.5V39.5C21 38.66 20.34 38 19.5 38ZM12.0519 49.2609H9.80005V46.9652H12.0519V44.9565C12.0519 43.3209 13.2904 41.9435 14.8667 41.8H17.4V44.0957H15.1482C14.6697 44.0957 14.3037 44.4688 14.3037 44.9565V46.9652H17.1185V49.2609H14.3038V55.2001H12.0519V49.2609ZM14.9286 55.2001H19.3215C19.8193 55.2001 20.2001 54.8193 20.2001 54.3215V39.6786C20.2001 39.1808 19.8193 38.8 19.3215 38.8H4.67859C4.18079 38.8 3.80005 39.1808 3.80005 39.6786V54.3215C3.80005 54.8193 4.18079 55.2001 4.67859 55.2001H11.4143V49.9286H9.07141V46.4143H11.4143V44.9501C11.4143 42.9879 12.9373 41.3186 14.8993 41.1429H18.15V44.6572H15.2214C15.0458 44.6572 14.9286 44.7743 14.9286 44.9501V46.4143H17.8572V49.9286H14.9286V55.2001Z" fill="white"/>
<mask id="mask0" mask-type="alpha" maskUnits="userSpaceOnUse" x="3" y="38" width="18" height="18">
<path fill-rule="evenodd" clip-rule="evenodd" d="M19.5 38H4.5C3.66003 38 3 38.66 3 39.5V54.5C3 55.34 3.66003 56 4.5 56H11.4H15H19.5C20.34 56 21 55.34 21 54.5V39.5C21 38.66 20.34 38 19.5 38ZM12.0519 49.2609H9.80005V46.9652H12.0519V44.9565C12.0519 43.3209 13.2904 41.9435 14.8667 41.8H17.4V44.0957H15.1482C14.6697 44.0957 14.3037 44.4688 14.3037 44.9565V46.9652H17.1185V49.2609H14.3038V55.2001H12.0519V49.2609ZM14.9286 55.2001H19.3215C19.8193 55.2001 20.2001 54.8193 20.2001 54.3215V39.6786C20.2001 39.1808 19.8193 38.8 19.3215 38.8H4.67859C4.18079 38.8 3.80005 39.1808 3.80005 39.6786V54.3215C3.80005 54.8193 4.18079 55.2001 4.67859 55.2001H11.4143V49.9286H9.07141V46.4143H11.4143V44.9501C11.4143 42.9879 12.9373 41.3186 14.8993 41.1429H18.15V44.6572H15.2214C15.0458 44.6572 14.9286 44.7743 14.9286 44.9501V46.4143H17.8572V49.9286H14.9286V55.2001Z" fill="white"/>
</mask>
<g mask="url(#mask0)">
</g>
<path fill-rule="evenodd" clip-rule="evenodd" d="M88.0326 38H79.9673C77.2283 38 75 40.2284 75 42.9674V51.0326C75 53.7717 77.2283 56 79.9673 56H88.0326C90.7717 56 93 53.7716 93 51.0326V42.9674C93.0001 40.2284 90.7717 38 88.0326 38ZM92.0001 51.3579C92.0001 53.3662 90.3662 55 88.3579 55H79.642C77.6338 55.0001 76 53.3662 76 51.3579V42.6421C76 40.6339 77.6338 39 79.642 39H88.3578C90.3661 39 92 40.6339 92 42.6421L92.0001 51.3579ZM79.3618 47.0002C79.3618 44.4427 81.4425 42.3621 84 42.3621C86.5575 42.3621 88.6381 44.4427 88.6381 47.0002C88.6381 49.5576 86.5575 51.6382 84 51.6382C81.4425 51.6382 79.3618 49.5576 79.3618 47.0002ZM88.4348 40.8341C88.5833 40.6851 88.7898 40.6 89 40.6C89.2108 40.6 89.4174 40.6851 89.5658 40.8341C89.7148 40.9825 89.7999 41.1891 89.7999 41.4C89.7999 41.6101 89.7148 41.8167 89.5658 41.9658C89.4166 42.1141 89.2108 42.2 89 42.2C88.7898 42.2 88.5833 42.1141 88.4348 41.9658C88.2858 41.8167 88.2 41.6102 88.2 41.4C88.2 41.2643 88.2355 41.1305 88.3004 41.0127C88.3364 40.9474 88.3816 40.8871 88.4348 40.8341Z" fill="white"/>
<mask id="mask1" mask-type="alpha" maskUnits="userSpaceOnUse" x="79" y="40" width="11" height="12">
<path fill-rule="evenodd" clip-rule="evenodd" d="M88.4348 40.8341C88.5833 40.6851 88.7898 40.6 89 40.6C89.2108 40.6 89.4174 40.6851 89.5658 40.8341C89.7148 40.9825 89.7999 41.1891 89.7999 41.4C89.7999 41.6101 89.7148 41.8167 89.5658 41.9658C89.4166 42.1141 89.2108 42.2 89 42.2C88.7898 42.2 88.5833 42.1141 88.4348 41.9658C88.2858 41.8167 88.2 41.6102 88.2 41.4C88.2 41.2643 88.2355 41.1305 88.3004 41.0127C88.3364 40.9474 88.3816 40.8871 88.4348 40.8341ZM84 42.3621C81.4425 42.3621 79.3618 44.4427 79.3618 47.0002C79.3618 49.5576 81.4425 51.6382 84 51.6382C86.5575 51.6382 88.6381 49.5576 88.6381 47.0002C88.6381 44.4427 86.5575 42.3621 84 42.3621ZM84 50.8397C81.8827 50.8397 80.16 49.1173 80.16 47C80.16 44.8826 81.8826 43.16 84 43.16C86.1174 43.16 87.8401 44.8826 87.8401 47C87.8401 49.1173 86.1173 50.8397 84 50.8397Z" fill="white"/>
</mask>
<g mask="url(#mask1)">
</g>
<path fill-rule="evenodd" clip-rule="evenodd" d="M56.5303 41.0949C56.6525 41.0636 56.8053 41.0949 56.8969 41.1886C56.9885 41.2824 57.0191 41.4386 56.9885 41.5636C56.7136 42.4698 56.1637 43.126 55.4915 43.4698V43.5634C55.4915 49.5942 51.0921 54.5 45.7149 54.5C42.6902 54.5 40.2461 53.9688 39.1463 53.0627C39.0239 52.9377 38.9629 52.7814 39.0239 52.5939C39.0851 52.4377 39.2378 52.3127 39.4212 52.3127C41.2238 52.2814 42.3847 51.844 43.2706 51.3128C41.5598 51.094 40.4905 50.2504 39.9406 48.6568C39.8794 48.5005 39.9406 48.3443 40.0628 48.2505C40.185 48.1568 40.3683 48.1568 40.4905 48.2193C40.9487 48.5318 41.407 48.5943 41.9569 48.5943C40.7959 47.8757 39.7267 46.6882 39.299 45.2195C39.2683 45.0633 39.3295 44.8759 39.4517 44.8134C39.6044 44.7196 39.7572 44.7509 39.8794 44.8446C40.2155 45.1258 40.5822 45.3133 41.1321 45.407C39.9406 44.1571 39.2073 42.3135 40.246 40.2825L40.4293 39.9075L40.7348 40.22C42.629 42.251 44.3705 43.1885 47.548 43.8134V43.6884C47.548 41.4074 49.2894 39.5325 51.4586 39.5013C52.314 39.5013 53.5055 40.1263 53.9944 40.4075C54.006 40.4075 54.0177 40.412 54.0277 40.4159C54.0438 40.4223 54.0556 40.4268 54.0556 40.4075C54.6665 40.22 55.3998 39.9075 56.2553 39.5325C56.3775 39.47 56.5303 39.5013 56.6218 39.595C56.7136 39.6888 56.7442 39.8138 56.683 39.97C56.5303 40.4075 56.2859 40.8763 55.9192 41.3136L56.5303 41.0949ZM54.7355 43.2378L54.9133 43.1774C55.4765 42.9662 55.8025 42.5135 56.01 42.1213L54.854 42.5136C54.7058 42.5739 54.528 42.5136 54.4688 42.3627C54.4094 42.2117 54.4391 42.0307 54.5576 41.9401C55.0319 41.5478 55.3876 41.1253 55.6543 40.6727C55.0615 40.914 54.528 41.1253 54.0834 41.2762C53.9055 41.3365 53.7277 41.3063 53.5498 41.2159L53.532 41.206C53.1845 41.0127 52.0856 40.4014 51.4158 40.4312C49.6373 40.4613 48.2146 42.0005 48.2146 43.8716V44.7166L47.859 44.6563C44.5985 44.0527 42.7905 43.1774 40.8936 41.2762C40.0043 43.5697 41.8421 45.1694 42.4645 45.622L43.2055 46.1652H42.2866C41.6937 46.1652 41.0418 46.1049 40.4489 45.8333C41.101 47.2215 42.4348 48.2476 43.5612 48.5796L43.4722 49.1832C43.2351 49.1832 42.9979 49.1832 42.7609 49.2133C42.1384 49.2436 41.5752 49.2436 41.0418 49.0624C41.6345 50.2093 42.672 50.6922 44.3615 50.6922H45.2506L44.5097 51.2354C43.5908 51.9596 42.4052 52.6236 40.36 52.7746C41.3381 53.2574 43.1461 53.7101 45.8434 53.7101C50.4647 53.7101 54.7355 48.9991 54.7355 43.7509V43.2378Z" fill="white"/>
<mask id="mask2" mask-type="alpha" maskUnits="userSpaceOnUse" x="39" y="39" width="18" height="16">
<path fill-rule="evenodd" clip-rule="evenodd" d="M56.5303 41.0949C56.6525 41.0636 56.8053 41.0949 56.8969 41.1886C56.9885 41.2824 57.0191 41.4386 56.9885 41.5636C56.7136 42.4698 56.1637 43.126 55.4915 43.4698V43.5634C55.4915 49.5942 51.0921 54.5 45.7149 54.5C42.6902 54.5 40.2461 53.9688 39.1463 53.0627C39.0239 52.9377 38.9629 52.7814 39.0239 52.5939C39.0851 52.4377 39.2378 52.3127 39.4212 52.3127C41.2238 52.2814 42.3847 51.844 43.2706 51.3128C41.5598 51.094 40.4905 50.2504 39.9406 48.6568C39.8794 48.5005 39.9406 48.3443 40.0628 48.2505C40.185 48.1568 40.3683 48.1568 40.4905 48.2193C40.9487 48.5318 41.407 48.5943 41.9569 48.5943C40.7959 47.8757 39.7267 46.6882 39.299 45.2195C39.2683 45.0633 39.3295 44.8759 39.4517 44.8134C39.6044 44.7196 39.7572 44.7509 39.8794 44.8446C40.2155 45.1258 40.5822 45.3133 41.1321 45.407C39.9406 44.1571 39.2073 42.3135 40.246 40.2825L40.4293 39.9075L40.7348 40.22C42.629 42.251 44.3705 43.1885 47.548 43.8134V43.6884C47.548 41.4074 49.2894 39.5325 51.4586 39.5013C52.314 39.5013 53.5055 40.1263 53.9944 40.4075C54.006 40.4075 54.0177 40.412 54.0277 40.4159C54.0438 40.4223 54.0556 40.4268 54.0556 40.4075C54.6665 40.22 55.3998 39.9075 56.2553 39.5325C56.3775 39.47 56.5303 39.5013 56.6218 39.595C56.7136 39.6888 56.7442 39.8138 56.683 39.97C56.5303 40.4075 56.2859 40.8763 55.9192 41.3136L56.5303 41.0949ZM54.7355 43.2378L54.9133 43.1774C55.4765 42.9662 55.8025 42.5135 56.01 42.1213L54.854 42.5136C54.7058 42.5739 54.528 42.5136 54.4688 42.3627C54.4094 42.2117 54.4391 42.0307 54.5576 41.9401C55.0319 41.5478 55.3876 41.1253 55.6543 40.6727C55.0615 40.914 54.528 41.1253 54.0834 41.2762C53.9055 41.3365 53.7277 41.3063 53.5498 41.2159L53.532 41.206C53.1845 41.0127 52.0856 40.4014 51.4158 40.4312C49.6373 40.4613 48.2146 42.0005 48.2146 43.8716V44.7166L47.859 44.6563C44.5985 44.0527 42.7905 43.1774 40.8936 41.2762C40.0043 43.5697 41.8421 45.1694 42.4645 45.622L43.2055 46.1652H42.2866C41.6937 46.1652 41.0418 46.1049 40.4489 45.8333C41.101 47.2215 42.4348 48.2476 43.5612 48.5796L43.4722 49.1832C43.2351 49.1832 42.9979 49.1832 42.7609 49.2133C42.1384 49.2436 41.5752 49.2436 41.0418 49.0624C41.6345 50.2093 42.672 50.6922 44.3615 50.6922H45.2506L44.5097 51.2354C43.5908 51.9596 42.4052 52.6236 40.36 52.7746C41.3381 53.2574 43.1461 53.7101 45.8434 53.7101C50.4647 53.7101 54.7355 48.9991 54.7355 43.7509V43.2378Z" fill="white"/>
</mask>
<g mask="url(#mask2)">
</g>
<path d="M20.3281 3.625V11.3594C20.3229 12.4323 19.9844 13.3099 19.3125 13.9922C18.6458 14.6745 17.7396 15.0573 16.5938 15.1406L16.1953 15.1562C14.9505 15.1562 13.9583 14.8203 13.2188 14.1484C12.4792 13.4766 12.1042 12.5521 12.0938 11.375V3.625H13.5781V11.3281C13.5781 12.151 13.8047 12.7917 14.2578 13.25C14.7109 13.7031 15.3568 13.9297 16.1953 13.9297C17.0443 13.9297 17.6927 13.7031 18.1406 13.25C18.5938 12.7969 18.8203 12.1589 18.8203 11.3359V3.625H20.3281ZM29.625 10.8672C29.625 12.1589 29.3281 13.1979 28.7344 13.9844C28.1406 14.7656 27.3438 15.1562 26.3438 15.1562C25.276 15.1562 24.4505 14.7786 23.8672 14.0234L23.7969 15H22.4688V3H23.9141V7.47656C24.4974 6.7526 25.3021 6.39062 26.3281 6.39062C27.3542 6.39062 28.1589 6.77865 28.7422 7.55469C29.3307 8.33073 29.625 9.39323 29.625 10.7422V10.8672ZM28.1797 10.7031C28.1797 9.71875 27.9896 8.95833 27.6094 8.42188C27.2292 7.88542 26.6823 7.61719 25.9688 7.61719C25.0156 7.61719 24.3307 8.0599 23.9141 8.94531V12.6016C24.3568 13.487 25.0469 13.9297 25.9844 13.9297C26.6771 13.9297 27.2161 13.6615 27.6016 13.125C27.987 12.5885 28.1797 11.7812 28.1797 10.7031ZM34.9609 15.1562C33.8151 15.1562 32.8828 14.7812 32.1641 14.0312C31.4453 13.276 31.0859 12.2682 31.0859 11.0078V10.7422C31.0859 9.90365 31.2448 9.15625 31.5625 8.5C31.8854 7.83854 32.3333 7.32292 32.9062 6.95312C33.4844 6.57812 34.1094 6.39062 34.7812 6.39062C35.8802 6.39062 36.7344 6.7526 37.3438 7.47656C37.9531 8.20052 38.2578 9.23698 38.2578 10.5859V11.1875H32.5312C32.5521 12.0208 32.7943 12.6953 33.2578 13.2109C33.7266 13.7214 34.3203 13.9766 35.0391 13.9766C35.5495 13.9766 35.9818 13.8724 36.3359 13.6641C36.6901 13.4557 37 13.1797 37.2656 12.8359L38.1484 13.5234C37.4401 14.612 36.3776 15.1562 34.9609 15.1562ZM34.7812 7.57812C34.1979 7.57812 33.7083 7.79167 33.3125 8.21875C32.9167 8.64062 32.6719 9.23438 32.5781 10H36.8125V9.89062C36.7708 9.15625 36.5729 8.58854 36.2188 8.1875C35.8646 7.78125 35.3854 7.57812 34.7812 7.57812ZM44.0234 7.84375C43.8047 7.80729 43.5677 7.78906 43.3125 7.78906C42.3646 7.78906 41.7214 8.19271 41.3828 9V15H39.9375V6.54688H41.3438L41.3672 7.52344C41.8411 6.76823 42.513 6.39062 43.3828 6.39062C43.6641 6.39062 43.8776 6.42708 44.0234 6.5V7.84375ZM52.0156 9.74219H47.0859V13.7734H52.8125V15H45.5859V3.625H52.7344V4.85938H47.0859V8.51562H52.0156V9.74219ZM59.6719 15C59.5885 14.8333 59.5208 14.5365 59.4688 14.1094C58.7969 14.8073 57.9948 15.1562 57.0625 15.1562C56.2292 15.1562 55.5443 14.9219 55.0078 14.4531C54.4766 13.9792 54.2109 13.3802 54.2109 12.6562C54.2109 11.776 54.5443 11.0938 55.2109 10.6094C55.8828 10.1198 56.8255 9.875 58.0391 9.875H59.4453V9.21094C59.4453 8.70573 59.2943 8.30469 58.9922 8.00781C58.6901 7.70573 58.2448 7.55469 57.6562 7.55469C57.1406 7.55469 56.7083 7.6849 56.3594 7.94531C56.0104 8.20573 55.8359 8.52083 55.8359 8.89062H54.3828C54.3828 8.46875 54.5312 8.0625 54.8281 7.67188C55.1302 7.27604 55.5365 6.96354 56.0469 6.73438C56.5625 6.50521 57.1276 6.39062 57.7422 6.39062C58.7161 6.39062 59.4792 6.63542 60.0312 7.125C60.5833 7.60938 60.8698 8.27865 60.8906 9.13281V13.0234C60.8906 13.7995 60.9896 14.4167 61.1875 14.875V15H59.6719ZM57.2734 13.8984C57.7266 13.8984 58.1562 13.7812 58.5625 13.5469C58.9688 13.3125 59.263 13.0078 59.4453 12.6328V10.8984H58.3125C56.5417 10.8984 55.6562 11.4167 55.6562 12.4531C55.6562 12.9062 55.8073 13.2604 56.1094 13.5156C56.4115 13.7708 56.7995 13.8984 57.2734 13.8984ZM65.1172 4.5V6.54688H66.6953V7.66406H65.1172V12.9062C65.1172 13.2448 65.1875 13.5 65.3281 13.6719C65.4688 13.8385 65.7083 13.9219 66.0469 13.9219C66.2135 13.9219 66.4427 13.8906 66.7344 13.8281V15C66.3542 15.1042 65.9844 15.1562 65.625 15.1562C64.9792 15.1562 64.4922 14.9609 64.1641 14.5703C63.8359 14.1797 63.6719 13.625 63.6719 12.9062V7.66406H62.1328V6.54688H63.6719V4.5H65.1172ZM73.3125 12.7578C73.3125 12.3672 73.1641 12.0651 72.8672 11.8516C72.5755 11.6328 72.0625 11.4453 71.3281 11.2891C70.599 11.1328 70.0182 10.9453 69.5859 10.7266C69.1589 10.5078 68.8411 10.2474 68.6328 9.94531C68.4297 9.64323 68.3281 9.28385 68.3281 8.86719C68.3281 8.17448 68.6198 7.58854 69.2031 7.10938C69.7917 6.63021 70.5417 6.39062 71.4531 6.39062C72.4115 6.39062 73.1875 6.63802 73.7812 7.13281C74.3802 7.6276 74.6797 8.26042 74.6797 9.03125H73.2266C73.2266 8.63542 73.0573 8.29427 72.7188 8.00781C72.3854 7.72135 71.9635 7.57812 71.4531 7.57812C70.9271 7.57812 70.5156 7.69271 70.2188 7.92188C69.9219 8.15104 69.7734 8.45052 69.7734 8.82031C69.7734 9.16927 69.9115 9.43229 70.1875 9.60938C70.4635 9.78646 70.9609 9.95573 71.6797 10.1172C72.4036 10.2786 72.9896 10.4714 73.4375 10.6953C73.8854 10.9193 74.2161 11.1901 74.4297 11.5078C74.6484 11.8203 74.7578 12.2031 74.7578 12.6562C74.7578 13.4115 74.4557 14.0182 73.8516 14.4766C73.2474 14.9297 72.4635 15.1562 71.5 15.1562C70.8229 15.1562 70.224 15.0365 69.7031 14.7969C69.1823 14.5573 68.7734 14.224 68.4766 13.7969C68.1849 13.3646 68.0391 12.8984 68.0391 12.3984H69.4844C69.5104 12.8828 69.7031 13.2682 70.0625 13.5547C70.4271 13.8359 70.9062 13.9766 71.5 13.9766C72.0469 13.9766 72.4844 13.8672 72.8125 13.6484C73.1458 13.4245 73.3125 13.1276 73.3125 12.7578Z" fill="white"/>
<path d="M5.97656 11.7969H3.91406L3.28906 15H2.17188L2.79688 11.7969H0.929688V10.7266H3L3.53906 7.96094H1.52344V6.875H3.75L4.39062 3.625H5.50781L4.86719 6.875H6.92969L7.57031 3.625H8.69531L8.05469 6.875H9.64844V7.96094H7.84375L7.30469 10.7266H9.0625V11.7969H7.10156L6.47656 15H5.35156L5.97656 11.7969ZM4.11719 10.7266H6.17969L6.71875 7.96094H4.65625L4.11719 10.7266Z" fill="#49A144"/>
</svg>
